HIERARCHY
ROOT HipCenter
{
    OFFSET 0.0 0.0 -0.0
    CHANNELS 6 Xposition Yposition Zposition Zrotation Xrotation Yrotation
    JOINT Spine
    {
        OFFSET 0.0 0.12084240466356277 0.0
        CHANNELS 3 Zrotation Xrotation Yrotation
        JOINT ShoulderCenter
        {
            OFFSET 0.0 0.3346405625343323 0.0
            CHANNELS 3 Zrotation Xrotation Yrotation
            JOINT LeftShoulder
            {
                OFFSET 0.1905357837677002 0.0 0.0
                CHANNELS 3 Zrotation Xrotation Yrotation
                JOINT LeftElbow
                {
                    OFFSET 0.2975112199783325 0.0 0.0
                    CHANNELS 3 Zrotation Xrotation Yrotation
                    JOINT LeftWrist
                    {
                        OFFSET 0.2960708737373352 0.0 0.0
                        CHANNELS 3 Zrotation Xrotation Yrotation
                        JOINT LeftHand
                        {
                            OFFSET 0.04400279000401497 0.0 0.0
                            CHANNELS 3 Zrotation Xrotation Yrotation
                            End Site
                            {
                                OFFSET 0.017601115629076958 0.0 0.0
                            }
                        }
                    }
                }
            }
            JOINT RightShoulder
            {
                OFFSET -0.1905357837677002 0.0 0.0
                CHANNELS 3 Zrotation Xrotation Yrotation
                JOINT RightElbow
                {
                    OFFSET -0.2975112199783325 0.0 0.0
                    CHANNELS 3 Zrotation Xrotation Yrotation
                    JOINT RightWrist
                    {
                        OFFSET -0.2960708737373352 0.0 0.0
                        CHANNELS 3 Zrotation Xrotation Yrotation
                        JOINT RightHand
                        {
                            OFFSET -0.04400279000401497 0.0 0.0
                            CHANNELS 3 Zrotation Xrotation Yrotation
                            End Site
                            {
                                OFFSET -0.017601115629076958 0.0 0.0
                            }
                        }
                    }
                }
            }
            End Site
            {
                OFFSET 0.0 0.13385623693466187 0.0
            }
        }
    }
    JOINT LeftHip
    {
        OFFSET 0.13981956243515015 0.0 0.0
        CHANNELS 3 Zrotation Xrotation Yrotation
        JOINT LeftKnee
        {
            OFFSET 0.0 -0.4064851999282837 0.0
            CHANNELS 3 Zrotation Xrotation Yrotation
            JOINT LeftAnkle
            {
                OFFSET 0.0 -0.44766226410865784 0.0
                CHANNELS 3 Zrotation Xrotation Yrotation
                JOINT LeftFoot
                {
                    OFFSET 0.0 -0.10064632445573807 0.0
                    CHANNELS 3 Zrotation Xrotation Yrotation
                    End Site
                    {
                        OFFSET 0.0 0.0 0.040258534252643585
                    }
                }
            }
        }
    }
    JOINT RightHip
    {
        OFFSET -0.13981956243515015 0.0 0.0
        CHANNELS 3 Zrotation Xrotation Yrotation
        JOINT RightKnee
        {
            OFFSET 0.0 -0.4064851999282837 0.0
            CHANNELS 3 Zrotation Xrotation Yrotation
            JOINT RightAnkle
            {
                OFFSET 0.0 -0.44766226410865784 0.0
                CHANNELS 3 Zrotation Xrotation Yrotation
                JOINT RightFoot
                {
                    OFFSET 0.0 -0.10064632445573807 0.0
                    CHANNELS 3 Zrotation Xrotation Yrotation
                    End Site
                    {
                        OFFSET 0.0 0.0 0.040258534252643585
                    }
                }
            }
        }
    }
}
MOTION
Frames: 8
Frame Time: 0.03333333333333333
0.609000027179718 0.20999999344348907 0.9190000295639038 0.9469674881249149 -1.8931314458723987 0.18981271874643546 -2.1467123439067253 -1.8575891851365478 -0.26887838852186785 -6.285985177578342e-08 2.62488254043198e-07 3.6086851904597004 92.17397228375127 -8.664453203354073 177.91703403642353 4.71182362418232e-06 8.875690662761733e-07 19.61260868583038 6.673554936960014e-07 32.635321098896185 14.687152724025488 -3.975693351829396e-15 2.2069531490250793e-31 -6.3611093629270335e-15 -89.38068551166198 3.50376302893008 -170.34245256962413 -1.7677582561359458e-06 5.663467414083215e-07 -23.500281217479642 179.9999983882814 -49.617743112084675 138.77467905665887 0.0 0.0 3.1805546814635168e-15 2.7826843396822283 9.896247752193917 -37.83416152143447 0.16504177322041644 -0.3999237136516899 0.38825038441053183 86.80422084399326 -55.77851590837911 136.3871500666494 3.1805546814635168e-15 -1.5902773407317584e-15 4.4139062980501586e-32 -6.908526783574241 13.626118150522215 56.573309749933216 -3.241741537478088 -2.6794204731225926 -3.8521834100643697 -91.47377926387435 -30.649453460591488 -161.42900270084095 -2.648343778830095e-31 9.541664044390549e-15 3.1805546814635164e-15
0.6079999804496765 0.210999995470047 0.9179999828338623 0.954828906088725 -1.9088911678446112 0.5836300514441337 -2.339252848691373 -1.9954176980037157 -0.2975522940410218 -1.6860824469816418e-08 2.8321858396668494e-07 3.2332058847480054 92.5948808268008 -10.439143081599672 178.93289632312877 9.421541229478905e-07 -2.633581594384983e-07 17.859700104211722 -4.823284814876336e-06 41.00741461687023 14.67762157934763 -1.5902773407317584e-15 -6.361109362927033e-15 -6.361109362927033e-15 -89.40132333508673 3.48260017823684 -171.12380193123343 -3.4939151128550966e-06 8.616070534074897e-07 -22.316550554758734 -179.99999389475465 -49.6227587171482 139.0626309026559 0.0 -7.951386703658792e-16 0.0 2.840271024699076 9.614991166317816 -38.10342406027241 -0.05591755816142794 0.0946153961445411 -0.0925955936624943 87.45283159397131 -55.415892190747236 137.3954963389509 3.1805546814635164e-15 4.770832022195274e-15 -1.3241718894150476e-31 -6.967110165724526 13.686713925841445 57.38838432242372 -3.0393981648382407 -2.7692231625417207 -3.969402000751882 -91.62465689043476 -29.110850236971512 -162.26556317287253 5.29668755766019e-31 6.3611093629270335e-15 -9.54166404439055e-15
0.6069999933242798 0.20999999344348907 0.9160000085830688 0.9469391916379319 -1.8931312111069851 0.20277242940396661 -2.4941088016260857 -2.3789165399682943 -0.3426360311256006 -1.1765748232649534e-07 -8.109319398310904e-08 3.6790330426801656 93.22321740025984 -9.698273780159832 -178.82640706700772 -3.148633788519185e-07 8.534722096474274e-08 14.1745657438162 5.306696721582719e-06 50.914858136710045 16.647768146913748 3.1805546814635168e-15 0.0 0.0 -89.73025652383868 2.9474841215422116 -172.67469768430217 6.953629334098143e-07 -1.0017405117885419e-07 -19.864899231681992 179.9999996678507 -49.15100830999714 139.68507066117752 6.3611093629270335e-15 -7.951386703658792e-16 4.4139062980501586e-32 3.0558848366498763 9.317798658336317 -37.95394739845824 -0.25186294963378564 0.3178126891099997 -0.31242890690953856 87.49741222111219 -55.01163458193492 137.7087882777906 -3.531125038440127e-31 -6.3611093629270335e-15 -6.3611093629270335e-15 -6.600130980876489 13.327163892207254 55.292799313883165 -2.806071499140902 -2.7531700574720435 -3.8531327015071084 -92.28297003579067 -31.88955615609193 -160.85881000017247 -3.1805546814635176e-15 9.541664044390553e-15 3.1805546814635176e-15
0.6060000061988831 0.20999999344348907 0.9129999876022339 0.47350194070563995 -1.8933248840242096 0.5791136126250923 -2.0386975681999817 -2.536932392276199 -0.3667485327695544 9.489010868873727e-08 2.9772626761269776e-10 3.3262018571036256 92.8713117208727 -0.6761563215062146 -175.5062213650902 -2.1679214696426095e-06 -9.298584901446676e-07 10.583305583049011 7.3087250702720235e-06 82.4447644545797 18.41778719323534 0.0 0.0 6.3611093629270335e-15 -90.33192456853486 7.907037462647145 -175.51688896409848 2.8012242193934335e-06 -1.1943348552511189e-06 -17.06745090218443 -179.99999945895928 -49.78626404149808 142.51984288141858 0.0 0.0 0.0 3.7328264909937485 9.150281913418517 -38.80294426396455 -0.27366763681236367 0.31832838939064856 -0.3125016609467106 88.31977205600572 -54.561948584456985 138.64717189714642 -4.4139062980501586e-32 1.5902773407317584e-15 3.1805546814635168e-15 -5.889306194418467 13.369059789890278 55.44181032823207 -2.9478017491018957 -2.787808816106232 -3.8222616152747335 -92.77454474625532 -31.220435637743517 -161.14889003601118 3.1805546814635164e-15 0.0 0.0
0.6060000061988831 0.20999999344348907 0.9100000262260437 0.9469674269584106 -2.3659509295625276 0.5469194479556994 -2.6780149535513234 -2.4010479873134307 -0.35442668528181376 8.048668687742422e-08 -3.5386400186790887e-09 3.244191615603592 93.43527971085841 0.7338842876467585 -171.4718108144859 -1.813771977149026e-07 2.1892411109371198e-07 8.258448970235834 0.00034192282781091344 89.96457181866276 20.0011831286444 3.1805546814635168e-15 -1.7655625192200634e-31 -6.3611093629270335e-15 -90.65648605511032 13.002934046537321 -179.561193720936 -3.846175969642592e-06 -5.966658629774239e-07 -14.604806360375735 -179.99999482671691 -55.19035628502015 142.92492220161967 6.3611093629270335e-15 6.3611093629270335e-15 -3.531125038440127e-31 3.25757672712818 9.351857186872891 -38.56381302983304 -0.3662931277758216 0.43998105407834603 -0.433099794856266 88.25357647793776 -54.62746746474328 138.6354241023896 3.1805546814635164e-15 1.5902773407317584e-15 3.1805546814635164e-15 -6.382819511866552 13.699118823453151 55.44856446698443 -2.860243125288034 -2.893275671338465 -3.9702848987454846 -92.70969884166259 -31.538635133105515 -160.95887448181153 9.541664044390547e-15 0.0 0.0
0.6050000190734863 0.20999999344348907 0.906000018119812 0.47747600194670703 -2.385858558977721 0.15045638596015495 -2.193519282994529 -2.910455865663368 -0.4078838438310355 -2.0099582904718704e-07 -8.228283708830636e-08 3.5133016989540473 94.93818736896259 0.727542371663232 -166.64308097817133 3.898327877297152e-06 1.2919072144595115e-06 8.361787043482888 -179.99987569570544 88.30755322914695 -160.64688173250283 -3.1805546814635168e-15 0.0 0.0 -91.09706328067564 15.431259984331966 175.0477404091301 3.847502622232497e-06 -1.0213859512425191e-06 -13.40275305251555 179.99999701204908 -57.105040069152054 142.76891104526604 0.0 7.951386703658792e-16 0.0 3.805635057192243 9.250623216843273 -38.7170510095385 -0.41138673912767343 0.2636988204261802 -0.26158640889781526 88.6857799589895 -54.2867661766315 139.40442570440254 -3.1805546814635168e-15 -8.827812596100317e-32 3.1805546814635168e-15 -5.845747217991904 13.372591903616618 55.42706187723831 -2.8915625236464924 -2.7593730536775642 -3.8141866657359382 -92.99740990405074 -31.636605383336864 -161.23779512941996 -3.1805546814635164e-15 6.361109362927033e-15 1.7655625192200634e-31
0.6050000190734863 0.20900000631809235 0.9020000100135803 0.4735301209764184 -2.838682583281339 0.4959795136414801 -2.209910073862629 -2.8013266264920773 -0.39461408417047056 -2.0500991574131018e-08 -2.3386097793779586e-07 3.036042861518163 97.65709282137512 0.3960787689474486 -160.342096065 -1.8255459851721147e-06 1.3456228307605586e-06 9.877672490233095 2.8287828717680642e-05 83.41641648376216 19.882159326714405 3.531125038440127e-31 -6.3611093629270335e-15 6.3611093629270335e-15 -92.29110119691278 14.154398144712685 168.23800325524525 4.284635386395805e-06 -6.821505694750275e-07 -13.722464315953246 -179.99999669470057 -54.90449867416754 141.49313618236596 0.0 0.0 1.5902773407317582e-15 3.729612875773847 9.403840457357525 -38.68899600106867 -0.21366299162119803 0.43219037163029783 -0.42836253566225835 89.29906097227615 -55.06070671468479 139.7159489788026 6.361109362927033e-15 6.361109362927033e-15 -3.531125038440127e-31 -5.754620783899058 13.553199232169865 55.13371157754924 -2.8297768705621325 -2.5422403845717367 -3.47116642245026 -92.81640513970285 -31.277476314813104 -161.07740084375067 -3.1805546814635164e-15 -9.54166404439055e-15 3.1805546814635164e-15
0.6050000190734863 0.20800000429153442 0.8970000147819519 0.9469675224866115 -3.3105043533841982 0.47488636691485414 -2.677563860485284 -2.6683302745660114 -0.3758417139325331 1.7529458620387198e-07 -8.109629941347097e-07 2.6210935405024633 101.50188053125846 -0.8121446815512923 -152.05521433922414 -1.5766109596649108e-06 -1.7459362793491725e-06 11.08093482183846 2.662314826884629e-06 69.68356346817575 16.82906623797779 -3.1805546814635168e-15 0.0 0.0 -94.41165812885178 11.798537576541143 159.89624046399277 -1.6214804841110962e-06 1.1713164965201553e-06 -14.458039821031697 179.9999955511377 -58.557976516092545 142.02972669139126 0.0 -1.5902773407317584e-15 0.0 3.254626419314492 9.602974254669224 -38.905439601780614 -0.23296626741153792 0.4536457892435996 -0.4487256147617495 88.81241165624013 -54.213706580865335 139.47441917661985 0.0 0.0 -3.1805546814635168e-15 -6.260754155193158 13.908246688904505 55.531536649122316 -2.887146984576427 -2.7439510004808665 -3.7256394428512167 -93.15711386044022 -31.178817197255075 -161.24819226656885 3.531125038440127e-31 6.361109362927035e-15 -6.361109362927035e-15
